<?xml version="1.0" encoding="UTF-8" standalone="no"?><!DOCTYPE svg PUBLIC "-//W3C//DTD SVG 1.1//EN" "http://www.w3.org/Graphics/SVG/1.1/DTD/svg11.dtd"><svg width="100%" height="100%" viewBox="0 0 72 72" version="1.1" xmlns="http://www.w3.org/2000/svg" xmlns:xlink="http://www.w3.org/1999/xlink" xml:space="preserve" xmlns:serif="http://www.serif.com/" style="fill-rule:evenodd;clip-rule:evenodd;stroke-linejoin:round;stroke-miterlimit:2;"><rect id="Bite" x="0" y="0" width="72" height="72" style="fill:none;"/><clipPath id="_clip1"><rect x="10.2" y="23.714" width="51.6" height="24.571"/></clipPath><g clip-path="url(#_clip1)"><path d="M46.627,34.526l1.659,0l0,7.494l-1.659,0l0,-7.494Zm-12.04,-5.16l0,13.33c0,3.133 -2.519,5.651 -5.59,5.651l-18.797,0l0,-18.981c0,-3.133 2.519,-5.651 5.59,-5.651l13.207,0c3.071,0 5.59,2.519 5.59,5.651Zm7.187,11.18c1.229,0 2.15,-0.983 2.15,-2.211c0,-1.167 -0.983,-2.211 -2.211,-2.211l-2.15,0l0,2.211c0.061,1.229 0.983,2.211 2.211,2.211Zm-0.061,-6.02c2.089,0 3.809,1.72 3.809,3.809c0,2.089 -1.659,3.809 -3.809,3.809c-2.089,0 -3.809,-1.72 -3.809,-3.809l0,-7.863l1.659,0l0,4.054l2.15,0Zm5.774,-2.826c0.491,0 0.86,0.369 0.86,0.86c0,0.491 -0.369,0.86 -0.86,0.86c-0.491,0 -0.86,-0.369 -0.86,-0.86c-0,-0.43 0.369,-0.86 0.86,-0.86Zm6.143,10.504l-0.246,0c-1.781,-0.123 -3.01,-1.474 -2.949,-3.194l0,-2.887l-1.229,0l0,-1.597l1.229,0l0,-2.703l1.597,0l0,2.703l1.597,0l0,1.597l-1.659,0l0,2.887c0,0.86 0.553,1.536 1.413,1.597l0.246,0l0,1.597Zm2.396,-4.853l3.931,0c-0.369,-0.86 -1.106,-1.474 -1.966,-1.474c-0.737,0 -1.536,0.491 -1.966,1.474Zm4.607,-1.904c0.737,0.737 1.167,1.904 1.167,3.133l-0.061,0.184l-5.836,0c0.184,1.229 1.229,1.904 2.15,1.904c0.799,0 1.413,-0.369 1.781,-0.983l1.781,0c-0.553,1.597 -1.843,2.519 -3.563,2.519c-2.15,0 -3.809,-1.72 -3.809,-3.931c0,-2.211 1.72,-3.931 3.747,-3.931c1.044,0 1.966,0.43 2.641,1.106Zm-40.543,2.949c0,1.659 1.351,3.01 3.01,3.01c1.659,0 3.01,-1.351 3.01,-3.01c0,-1.659 -1.351,-3.01 -3.01,-3.01l-3.01,0l0,3.01Zm0,-5.529l3.01,0c3.01,0 5.59,2.519 5.59,5.59c0,3.071 -2.519,5.59 -5.529,5.59c-3.01,0 -5.529,-2.519 -5.529,-5.59l0,-11.057l2.519,0l0,5.467l-0.061,0Z"/></g></svg>