<?xml version="1.0" encoding="UTF-8" standalone="no"?><!DOCTYPE svg PUBLIC "-//W3C//DTD SVG 1.1//EN" "http://www.w3.org/Graphics/SVG/1.1/DTD/svg11.dtd"><svg width="100%" height="100%" viewBox="0 0 72 72" version="1.1" xmlns="http://www.w3.org/2000/svg" xmlns:xlink="http://www.w3.org/1999/xlink" xml:space="preserve" xmlns:serif="http://www.serif.com/" style="fill-rule:evenodd;clip-rule:evenodd;stroke-linejoin:round;stroke-miterlimit:2;"><rect id="Bonava" x="0" y="0" width="72" height="72" style="fill:none;"/><g id="Bonava1" serif:id="Bonava"><g><path d="M14.375,43.518c0,1.455 -1.22,2.314 -2.802,2.314l-3.833,0l0,-8.317l3.842,0c1.555,0 2.594,0.832 2.594,2.142c0,0.895 -0.506,1.591 -1.284,1.907c0.904,0.262 1.483,0.967 1.483,1.953m-5.27,-4.764l0,2.305l2.287,0c0.814,0 1.41,-0.425 1.41,-1.175c0,-0.741 -0.579,-1.13 -1.356,-1.13l-2.341,0Zm3.887,4.647c0,-0.759 -0.588,-1.157 -1.446,-1.157l-2.45,0.009l0,2.332l2.459,0c0.823,0 1.437,-0.407 1.437,-1.184" style="fill-rule:nonzero;"/><path d="M16.816,41.683c0,-2.378 1.492,-4.294 3.987,-4.294c2.495,0 3.978,1.889 3.978,4.276c0,2.387 -1.492,4.294 -3.978,4.294c-2.477,0 -3.987,-1.898 -3.987,-4.276m6.581,-0.009c0,-1.654 -0.904,-3.01 -2.594,-3.01c-1.681,0 -2.594,1.338 -2.594,3.01c0,1.654 0.904,3.01 2.594,3.01c1.681,-0 2.594,-1.356 2.594,-3.01" style="fill-rule:nonzero;"/><path d="M34.326,37.515l0,8.317l-1.311,0l-4.24,-6.247l0,6.247l-1.338,0l0,-8.317l1.483,0l4.077,6.003l0,-6.003l1.329,0Z" style="fill-rule:nonzero;"/><path d="M42.507,43.988l-3.598,0l-0.714,1.844l-1.401,0l3.327,-8.317l1.229,0l3.327,8.317l-1.464,0l-0.705,-1.844Zm-0.479,-1.229l-1.32,-3.417l-1.32,3.417l2.64,0Z" style="fill-rule:nonzero;"/><path d="M53.165,37.515l-3.083,8.317l-1.284,0l-3.119,-8.317l1.483,0l2.287,6.355l2.287,-6.355l1.428,0Z" style="fill-rule:nonzero;"/><path d="M59.819,43.988l-3.598,0l-0.714,1.844l-1.41,0l3.327,-8.317l1.229,0l3.327,8.317l-1.455,0l-0.705,-1.844Zm-0.47,-1.229l-1.32,-3.417l-1.32,3.417l2.64,0Z" style="fill-rule:nonzero;"/><path d="M35.872,34.36c-1.392,0 -2.649,-0.723 -3.408,-1.799l-1.799,1.799l-0.949,-0.949l2.133,-2.133c-0.09,-0.334 -0.145,-0.687 -0.145,-1.049l0,-3.462l1.338,0l0,3.309l4.393,-4.393c0.28,-0.298 0.407,-0.624 0.407,-1.012c0,-0.805 -0.66,-1.464 -1.474,-1.492l-1.383,0l0,1.193l-1.338,0l0,-2.531l2.757,0c1.537,0.036 2.784,1.302 2.784,2.83c0,0.732 -0.262,1.383 -0.768,1.935l-0.163,0.163l0.488,0.497c0.814,0.786 1.257,1.835 1.257,2.965c0,2.278 -1.853,4.131 -4.131,4.131m-2.441,-2.766c0.488,0.841 1.419,1.428 2.45,1.428c1.537,0 2.793,-1.257 2.793,-2.793c0,-0.768 -0.307,-1.483 -0.859,-2.007l-0.497,-0.497l-3.887,3.869Z" style="fill-rule:nonzero;"/></g></g></svg>