<?xml version="1.0" encoding="UTF-8" standalone="no"?><!DOCTYPE svg PUBLIC "-//W3C//DTD SVG 1.1//EN" "http://www.w3.org/Graphics/SVG/1.1/DTD/svg11.dtd"><svg width="100%" height="100%" viewBox="0 0 72 72" version="1.1" xmlns="http://www.w3.org/2000/svg" xmlns:xlink="http://www.w3.org/1999/xlink" xml:space="preserve" xmlns:serif="http://www.serif.com/" style="fill-rule:evenodd;clip-rule:evenodd;stroke-linejoin:round;stroke-miterlimit:2;"><rect id="Indexo" x="-0" y="0" width="72" height="72" style="fill:none;"/><clipPath id="_clip1"><rect x="10.32" y="27.84" width="55.16" height="13.686"/></clipPath><g clip-path="url(#_clip1)"><g><clipPath id="_clip2"><rect x="10.32" y="27.84" width="55.16" height="13.686"/></clipPath><g clip-path="url(#_clip2)"><path d="M61.965,27.84l3.349,0l0,3.365l-1.319,0l0,-2.11l-2.03,0l0,-1.255Z" style="fill-rule:nonzero;"/><rect x="10.32" y="33.173" width="1.319" height="8.208" style="fill-rule:nonzero;"/><path d="M22.8,41.381l-1.191,0l-4.559,-5.939l-0.006,5.939l-1.319,0l0,-8.208l1.191,0l4.565,5.939l0,-5.939l1.319,0l0,8.208Z" style="fill-rule:nonzero;"/><path d="M59.909,37.278c0,2.451 -1.769,4.257 -4.279,4.257c-2.51,0 -4.279,-1.806 -4.279,-4.257c0,-2.451 1.769,-4.257 4.279,-4.257c2.51,0 4.279,1.806 4.279,4.257Zm-7.175,0c0,1.771 1.226,2.984 2.896,2.984c1.67,0 2.896,-1.214 2.896,-2.984c0,-1.771 -1.226,-2.984 -2.896,-2.984c-1.67,0 -2.896,1.214 -2.896,2.984Z" style="fill-rule:nonzero;"/><path d="M44.274,33.173l-1.594,0l2.785,4.022l-2.901,4.186l1.553,0l2.131,-3.16l2.113,3.16l1.593,0l-5.68,-8.208Z" style="fill-rule:nonzero;"/><path d="M47.338,36.4l2.505,-3.428l-1.357,0.247l-1.632,2.282l0.485,0.899Z" style="fill-rule:nonzero;"/><path d="M28.733,33.173l-2.71,0l0,1.255l2.71,0c1.921,0 2.861,1.178 2.861,2.849c0,1.653 -0.94,2.849 -2.861,2.849l-2.71,0l0,1.255l2.71,0c2.557,0 4.244,-1.63 4.244,-4.104c0,-2.474 -1.687,-4.104 -4.244,-4.104Z" style="fill-rule:nonzero;"/><rect x="35.063" y="33.173" width="5.65" height="1.243" style="fill-rule:nonzero;"/><rect x="35.523" y="36.627" width="4.731" height="1.243" style="fill-rule:nonzero;"/><rect x="35.064" y="40.14" width="5.723" height="1.243" style="fill-rule:nonzero;"/></g></g></g></svg>