<?xml version="1.0" encoding="UTF-8" standalone="no"?><!DOCTYPE svg PUBLIC "-//W3C//DTD SVG 1.1//EN" "http://www.w3.org/Graphics/SVG/1.1/DTD/svg11.dtd"><svg width="100%" height="100%" viewBox="0 0 72 72" version="1.1" xmlns="http://www.w3.org/2000/svg" xmlns:xlink="http://www.w3.org/1999/xlink" xml:space="preserve" xmlns:serif="http://www.serif.com/" style="fill-rule:evenodd;clip-rule:evenodd;stroke-linejoin:round;stroke-miterlimit:2;"><rect id="Keune" x="0" y="0" width="72" height="72" style="fill:none;"/><g id="Keune1" serif:id="Keune"><g><path d="M8.52,43.884l0,-15.968l0.832,0l0,7.568l7.73,-7.61l1.031,0l-7.536,7.407l8.439,8.562l-1.015,0l-7.993,-7.957l-0.655,0.655l0,7.343l-0.832,0Zm10.949,-15.968l0,15.969l7.3,0l0,-0.784l-6.581,0l0,-7.631l6.581,0l0,-0.774l-6.581,0l0,-6.083l6.617,0l0,-0.696l-7.336,0Zm34.552,0l0,15.969l7.3,0l0,-0.784l-6.58,0l0,-7.631l6.58,0l0,-0.774l-6.581,0l0,-6.083l3.235,0l0,-0.696l-3.954,0Zm-26.618,0l0.82,0l0,9.96c-0.591,7.194 9.911,7.285 9.546,0l0,-9.96l0.723,0l0,10.924c-0.353,7.044 -10.8,6.985 -11.089,0l0,-10.924Zm11.618,15.968l0,-16.076l13.596,14.165l0,-14.057l0.867,0l0,16.275l-13.643,-14.174l0,13.867l-0.82,0Z"/><path d="M61.37,26.636c1.301,0 2.362,1.061 2.362,2.362c0,1.301 -1.061,2.362 -2.362,2.362c-1.3,0 -2.361,-1.061 -2.361,-2.362c0,-1.301 1.061,-2.362 2.361,-2.362Zm0.265,-0.599c0.302,0.027 0.878,0.217 0.878,0.217l0.727,-1.365c-0.312,-0.305 -0.387,-0.783 -0.182,-1.169c0.254,-0.477 0.855,-0.66 1.333,-0.407c0.477,0.255 0.66,0.856 0.407,1.333c-0.211,0.394 -0.663,0.598 -1.098,0.496l-0.723,1.357c0.252,0.162 0.477,0.361 0.669,0.591l1.273,-0.866c-0.134,-0.415 0.022,-0.873 0.383,-1.119c0.447,-0.304 1.065,-0.186 1.369,0.261c0.303,0.447 0.186,1.065 -0.261,1.369c-0.37,0.251 -0.866,0.221 -1.202,-0.073l-1.262,0.858c0.26,0.449 0.396,0.959 0.396,1.478c0,1.637 -1.335,2.972 -2.973,2.972c-1.637,0 -2.972,-1.335 -2.972,-2.972c0,-0.535 0.143,-1.038 0.392,-1.472l-1.257,-0.853c-0.337,0.278 -0.82,0.301 -1.182,0.056c-0.447,-0.304 -0.565,-0.921 -0.262,-1.369c0.304,-0.446 0.921,-0.565 1.369,-0.263c0.369,0.251 0.524,0.724 0.376,1.145l1.256,0.852c0.193,-0.231 0.421,-0.432 0.674,-0.596l-0.723,-1.356c-0.428,0.089 -0.866,-0.116 -1.072,-0.501c-0.253,-0.477 -0.07,-1.078 0.406,-1.333c0.477,-0.253 1.078,-0.07 1.333,0.406c0.209,0.395 0.126,0.884 -0.201,1.188l0.72,1.351c0.281,-0.118 0.579,-0.191 0.883,-0.218l0,-1.544c-0.419,-0.123 -0.709,-0.51 -0.71,-0.946c0.001,-0.54 0.445,-0.984 0.985,-0.986c0.54,0.001 0.985,0.445 0.986,0.986c-0.001,0.447 -0.305,0.84 -0.736,0.954l0,1.537l0.001,0Zm-5.135,-0.397c0.151,-0.221 0.457,-0.28 0.679,-0.13c0.222,0.151 0.281,0.456 0.13,0.679c-0.151,0.221 -0.456,0.28 -0.678,0.13c-0.221,-0.151 -0.28,-0.457 -0.13,-0.679Zm2.109,-1.892c0.237,-0.126 0.535,-0.035 0.661,0.202c0.125,0.237 0.035,0.534 -0.201,0.661c-0.236,0.126 -0.535,0.035 -0.661,-0.201c-0.125,-0.237 -0.035,-0.535 0.201,-0.662Zm2.776,-0.69c0.27,0 0.489,0.22 0.489,0.489c0,0.269 -0.22,0.489 -0.489,0.489c-0.268,-0.001 -0.488,-0.221 -0.489,-0.489c0,-0.269 0.22,-0.489 0.489,-0.489Zm2.771,0.695c0.238,0.126 0.329,0.424 0.202,0.661c-0.127,0.236 -0.424,0.327 -0.661,0.202c-0.159,-0.085 -0.259,-0.251 -0.259,-0.431c0,-0.268 0.221,-0.489 0.489,-0.489c0.08,0 0.159,0.02 0.23,0.057Zm2.104,1.892c0.152,0.223 0.094,0.527 -0.129,0.679c-0.222,0.15 -0.528,0.091 -0.679,-0.13c-0.15,-0.222 -0.092,-0.528 0.13,-0.679c0.222,-0.15 0.528,-0.092 0.678,0.129Z"/></g></g></svg>