<?xml version="1.0" encoding="UTF-8" standalone="no"?><!DOCTYPE svg PUBLIC "-//W3C//DTD SVG 1.1//EN" "http://www.w3.org/Graphics/SVG/1.1/DTD/svg11.dtd"><svg width="100%" height="100%" viewBox="0 0 72 72" version="1.1" xmlns="http://www.w3.org/2000/svg" xmlns:xlink="http://www.w3.org/1999/xlink" xml:space="preserve" xmlns:serif="http://www.serif.com/" style="fill-rule:evenodd;clip-rule:evenodd;stroke-linejoin:round;stroke-miterlimit:2;"><rect id="Kinteics" x="0" y="0" width="72" height="72" style="fill:none;"/><g id="Kinteics1" serif:id="Kinteics"><clipPath id="_clip1"><rect x="8.4" y="28.442" width="55.2" height="15.116"/></clipPath><g clip-path="url(#_clip1)"><g id="Symbol_4_25"><path id="Path_1" d="M14.95,34.63l-1.327,0l-4.183,3.535l0,-7.325l-1.04,0l0,12.452l1.04,0l0,-4.692l4.543,4.692l1.316,0l-4.724,-4.915l4.373,-3.747Z" style="fill-rule:nonzero;"/><rect id="Rectangle_1" x="16.935" y="34.63" width="1.04" height="8.662"/><path id="Path_2" d="M24.525,34.375c-1.126,-0.033 -2.177,0.578 -2.707,1.572l-0.032,-0.032l-0.043,-1.274l-1.073,0c0.032,0.584 0.085,1.274 0.085,1.955l0,6.708l1.03,0l0,-4.991c0,-1.55 0.775,-2.983 2.484,-2.983c1.412,0 2.272,0.882 2.272,2.377l0,5.596l1.04,0l0,-5.424c0.002,-0.998 -0.222,-3.503 -3.056,-3.503Z" style="fill-rule:nonzero;"/><path id="Path_3" d="M33.686,34.375c-2.568,0 -3.864,2.24 -3.864,4.586c0,2.367 1.21,4.597 3.8,4.597c2.091,0 3.376,-0.955 3.917,-3.015l-1.093,0c-0.239,1.192 -1.29,2.06 -2.505,2.07c-2.123,0 -2.962,-1.55 -2.993,-3.397l6.688,0c-0,-2.717 -1.051,-4.84 -3.949,-4.84Zm0.021,0.945c1.794,0 2.686,1.265 2.813,2.93l-5.53,0c0.127,-1.508 1.017,-2.93 2.717,-2.93Z" style="fill-rule:nonzero;"/><rect id="Rectangle_2" x="44.853" y="34.63" width="1.04" height="8.662"/><path id="Path_4" d="M51.775,35.32c1.433,0 2.282,0.637 2.357,1.964l1.125,0c-0.085,-1.847 -1.539,-2.909 -3.312,-2.909c-2.568,0 -3.864,2.24 -3.864,4.586c0,2.367 1.21,4.597 3.79,4.597c1.964,0 3.1,-0.987 3.376,-2.972l-1.125,0c-0.085,1.188 -1.019,2.017 -2.357,2.017c-1.582,0 -2.568,-1.677 -2.568,-3.652c0,-1.975 0.987,-3.631 2.579,-3.631Z" style="fill-rule:nonzero;"/><path id="Path_5" d="M62.135,38.707c-2.346,-0.828 -4.025,-0.711 -4.025,-1.985c0,-1.019 0.977,-1.401 1.955,-1.401c1.073,0 2.038,0.361 2.134,1.444l1.125,0c-0.138,-1.826 -1.518,-2.399 -3.163,-2.399c-1.507,0 -3.174,0.626 -3.174,2.42c0,1.603 1.38,1.996 2.739,2.325c1.38,0.307 2.749,0.52 2.749,1.763c0,1.21 -1.157,1.72 -2.262,1.72c-1.178,0 -2.314,-0.383 -2.399,-1.677l-1.114,0c0.043,1.911 1.763,2.622 3.258,2.622c1.826,0 3.642,-0.882 3.642,-2.834c-0.004,-0.91 -0.598,-1.72 -1.465,-1.998Z" style="fill-rule:nonzero;"/><path id="Path_6" d="M45.311,31.095c-0.392,-0.002 -0.735,0.274 -0.817,0.658l-3.62,0l0,-3.312l-1.03,0.021l0,3.291l-21.54,0c-0.091,-0.378 -0.431,-0.646 -0.82,-0.646c-0.463,0 -0.843,0.381 -0.843,0.843c0,0.463 0.381,0.843 0.843,0.843c0.001,0 0.002,-0 0.003,-0c0.389,0.002 0.731,-0.268 0.817,-0.647l21.528,0l0,8.842c0,1.168 -0.115,2.568 2.07,2.568c0.356,-0.01 0.709,-0.063 1.051,-0.159l0,-0.891c-0.294,0.08 -0.598,0.115 -0.902,0.106c-0.046,0.006 -0.093,0.009 -0.139,0.009c-0.583,0 -1.062,-0.48 -1.062,-1.062c0,-0.056 0.004,-0.112 0.013,-0.168l0,-9.235l3.62,0c0.087,0.379 0.428,0.65 0.817,0.647c0.002,0 0.004,0 0.005,0c0.469,0 0.854,-0.386 0.854,-0.854c0,-0.467 -0.382,-0.852 -0.849,-0.854l0,0Z" style="fill-rule:nonzero;"/></g></g></g></svg>