<?xml version="1.0" encoding="UTF-8" standalone="no"?><!DOCTYPE svg PUBLIC "-//W3C//DTD SVG 1.1//EN" "http://www.w3.org/Graphics/SVG/1.1/DTD/svg11.dtd"><svg width="100%" height="100%" viewBox="0 0 72 72" version="1.1" xmlns="http://www.w3.org/2000/svg" xmlns:xlink="http://www.w3.org/1999/xlink" xml:space="preserve" xmlns:serif="http://www.serif.com/" style="fill-rule:evenodd;clip-rule:evenodd;stroke-linejoin:round;stroke-miterlimit:2;"><rect id="LMT" x="0" y="0" width="72" height="72" style="fill:none;"/><g id="LMT1" serif:id="LMT"><g><clipPath id="_clip1"><rect x="7.8" y="25.929" width="55.393" height="18.211"/></clipPath><g clip-path="url(#_clip1)"><path d="M10.412,29.637l-2.612,0l0,14.503l2.612,0l0,-14.503Zm2.102,3.632l2.395,0l0,1.001c0.51,-0.982 1.845,-1.354 2.867,-1.354c1.118,0 2.218,0.471 2.905,1.354c0.098,0.098 0.176,0.217 0.255,0.333c0.07,-0.127 0.163,-0.24 0.274,-0.333c0.765,-0.922 2.002,-1.354 3.181,-1.354c1.277,0 2.454,0.372 3.318,1.354c1.001,1.079 1.118,2.355 1.118,3.768l0,6.102l-2.612,0l0,-5.79c0,-0.628 -0.019,-1.531 -0.393,-2.08c-0.334,-0.51 -1.001,-0.805 -1.63,-0.805c-0.727,0 -1.413,0.314 -1.806,0.941c-0.451,0.707 -0.412,1.767 -0.412,2.551l0,5.18l-2.608,0l0,-5.788c0,-0.707 0,-1.374 -0.412,-2.001c-0.374,-0.569 -1.041,-0.883 -1.709,-0.883c-2.08,0 -2.12,1.962 -2.12,3.494l0,5.18l-2.611,0l0,-10.871Zm18.256,-3.632l2.612,0l0,3.632l2.259,0l0,2.315l-2.259,0l0,8.556l-2.612,0l0,-14.503l0,0.001Z" style="fill-rule:nonzero;"/><path d="M57.933,39.601c-0.395,0 -0.772,-0.133 -1.011,-0.358c-0.096,-0.093 -2.324,-2.236 -3.178,-3.038c-0.297,-0.279 -0.451,-0.643 -0.435,-1.025c0.016,-0.385 0.203,-0.741 0.531,-1.004l4.372,-3.157c0.448,-0.303 0.908,-0.463 1.331,-0.463c0.714,0 1.307,0.462 1.477,1.148l1.116,4.643c0.119,0.492 -0.161,1.145 -0.598,1.397l-2.928,1.692c-0.184,0.107 -0.425,0.165 -0.678,0.165Zm5.204,-3.494l-1.117,-4.646c-0.286,-1.156 -1.282,-1.932 -2.478,-1.932c-0.634,0 -1.296,0.223 -1.917,0.646l-4.4,3.178l-0.015,0.011c-0.571,0.452 -0.901,1.081 -0.93,1.771c-0.029,0.676 0.247,1.341 0.76,1.821c0.863,0.811 3.149,3.011 3.171,3.034l0.003,0.003c0.432,0.406 1.059,0.639 1.718,0.639c0.438,0 0.85,-0.104 1.192,-0.303l2.927,-1.692c0.834,-0.481 1.311,-1.592 1.085,-2.528l-0,-0.001Z" style="fill-rule:nonzero;"/><path d="M55.074,34.93c-0.137,0.001 -0.273,-0.019 -0.403,-0.06l-2.642,-0.858c-0.651,-0.212 -1.224,-0.997 -1.224,-1.683l0,-4.033c0,-0.43 0.112,-0.781 0.322,-1.018c0.187,-0.208 0.451,-0.319 0.765,-0.319c0.212,0 0.441,0.05 0.68,0.146l4.582,1.852c0.475,0.193 0.825,0.545 0.984,0.991c0.159,0.448 0.109,0.942 -0.138,1.39l-1.571,2.838c-0.245,0.445 -0.804,0.755 -1.357,0.755Zm4.036,-5.328c-0.258,-0.728 -0.815,-1.297 -1.569,-1.602l-4.581,-1.852c-0.363,-0.146 -0.722,-0.22 -1.066,-0.22c-1.246,0 -2.117,0.973 -2.117,2.367l0,4.033c0,1.14 0.851,2.31 1.935,2.661l2.644,0.858c0.228,0.074 0.47,0.112 0.72,0.112c0.926,0 1.834,-0.518 2.259,-1.287l1.569,-2.838c0.393,-0.71 0.467,-1.503 0.207,-2.232l-0.001,0Z" style="fill-rule:nonzero;"/><path d="M45.863,34.148l7.179,-2.673c0.142,-0.053 0.292,-0.08 0.444,-0.082c0.491,0 0.849,0.317 0.956,0.847l0.446,2.184l0.542,2.662c0.034,0.168 0.019,0.314 -0.043,0.389c-0.058,0.071 -0.165,0.086 -0.245,0.086c-0.053,0 -0.109,-0.007 -0.17,-0.02l-8.703,-1.806l-0.005,-0.002l-0.005,-0.002c-0.659,-0.126 -1.088,-0.428 -1.116,-0.784c-0.024,-0.306 0.265,-0.628 0.72,-0.798Zm10.575,2.732l-0.989,-4.845c-0.203,-0.999 -0.993,-1.671 -1.965,-1.671c-0.263,0 -0.529,0.048 -0.796,0.143l-7.186,2.676c-0.906,0.338 -1.45,1.065 -1.385,1.85c0.034,0.409 0.232,0.784 0.568,1.084c0.342,0.303 0.804,0.514 1.376,0.625l8.7,1.807c0.128,0.027 0.257,0.04 0.378,0.04c0.428,0 0.799,-0.164 1.043,-0.463c0.265,-0.321 0.355,-0.764 0.255,-1.246Z" style="fill-rule:nonzero;"/><path d="M40.411,36.487c-0.499,0.136 -0.829,0.165 -0.98,-0.016c-0.106,-0.128 -0.09,-0.398 0.169,-0.937l2.929,-6.08c0.222,-0.457 0.532,-0.72 0.853,-0.72c0.274,0 0.568,0.183 0.829,0.515c0.863,1.098 3.237,4.1 3.26,4.129c0.208,0.266 0.286,0.53 0.217,0.748c-0.069,0.217 -0.284,0.388 -0.606,0.484l-6.669,1.876l-0.001,0Zm7.868,-3.749c-0.024,-0.03 -2.397,-3.03 -3.258,-4.127c-0.46,-0.585 -1.041,-0.907 -1.638,-0.907c-0.733,0 -1.383,0.474 -1.783,1.303l-2.929,6.08c-0.476,0.988 -0.324,1.595 -0.114,1.931c0.242,0.386 0.686,0.598 1.248,0.598c0.271,0 0.571,-0.048 0.892,-0.143l6.664,-1.876l0.005,-0.002c0.651,-0.193 1.126,-0.616 1.299,-1.159c0.175,-0.544 0.034,-1.163 -0.387,-1.698Z" style="fill-rule:nonzero;"/></g></g></g></svg>