<?xml version="1.0" encoding="UTF-8" standalone="no"?><!DOCTYPE svg PUBLIC "-//W3C//DTD SVG 1.1//EN" "http://www.w3.org/Graphics/SVG/1.1/DTD/svg11.dtd"><svg width="100%" height="100%" viewBox="0 0 72 72" version="1.1" xmlns="http://www.w3.org/2000/svg" xmlns:xlink="http://www.w3.org/1999/xlink" xml:space="preserve" xmlns:serif="http://www.serif.com/" style="fill-rule:evenodd;clip-rule:evenodd;stroke-linejoin:round;stroke-miterlimit:2;"><rect id="LSM" x="0" y="0" width="72" height="72" style="fill:none;"/><g id="LSM1" serif:id="LSM"><g id="lsm_logo_pixel"><path id="Path_981" d="M39.624,44.591l-3.532,0l0,-5.593l1.472,0l0,4.415l2.06,0l0,1.177Z" style="fill-rule:nonzero;"/><path id="Path_982" d="M44.849,42.935c0,1.141 -0.92,1.693 -2.024,1.693c-0.993,0.037 -1.913,-0.368 -2.612,-1.067l0.957,-0.957c0.331,0.258 0.846,0.773 1.509,0.773c0.368,0 0.699,-0.147 0.699,-0.515c0,-0.515 -0.626,-0.626 -1.288,-0.92c-0.552,-0.258 -1.582,-0.736 -1.582,-1.619c0,-1.214 1.141,-1.582 2.024,-1.582c0.883,0 1.729,0.294 2.392,0.883l-0.846,0.92c-0.442,-0.331 -0.957,-0.552 -1.509,-0.589c0,0 -0.589,-0.074 -0.589,0.405c0,0.11 -0.037,0.331 0.846,0.626c1.251,0.478 2.024,0.957 2.024,1.95Z" style="fill-rule:nonzero;"/><path id="Path_983" d="M52.282,44.591l-1.472,0l0,-2.723l-1.325,2.723l-0.883,0l-1.325,-2.723l0,2.723l-1.472,0l0,-5.593l1.435,0l1.803,3.569l1.803,-3.569l1.435,0l0,5.593Z" style="fill-rule:nonzero;"/><path id="Path_984" d="M54.121,44.591c-0.405,0 -0.736,-0.331 -0.699,-0.736c0,-0.405 0.331,-0.736 0.736,-0.736c0.405,0 0.736,0.331 0.736,0.736c-0.074,0.405 -0.368,0.736 -0.773,0.736Z" style="fill-rule:nonzero;"/><rect id="Path_985" x="55.814" y="38.704" width="1.472" height="5.887" style="fill-rule:nonzero;"/><path id="Path_986" d="M57.874,40.764l1.398,0l0.883,1.987l0.883,-1.987l1.361,0l-1.803,3.827l-0.883,0l-1.84,-3.827Z" style="fill-rule:nonzero;"/><g id="Group_1718"><path id="Path_987" d="M9.6,23.986l0,23.548l23.548,0l0,-23.548l-23.548,0Zm20.605,20.605l-17.661,0l-0,-17.661l17.661,0l0,17.661Z" style="fill-rule:nonzero;"/><path id="Path_988" d="M17.879,38.152l3.459,3.459l3.459,-3.459c1.877,-1.913 1.84,-5.004 -0.074,-6.881c-1.913,-1.877 -5.004,-1.84 -6.881,0.074c-1.877,1.877 -1.84,4.93 0.037,6.807Zm3.459,-5.556c1.177,0 2.097,0.957 2.097,2.134c0,1.177 -0.957,2.134 -2.134,2.134c-1.177,0 -2.134,-0.957 -2.134,-2.134c0.037,-1.177 0.993,-2.134 2.171,-2.134Z" style="fill-rule:nonzero;"/></g></g></g></svg>