<?xml version="1.0" encoding="UTF-8" standalone="no"?>
<!DOCTYPE svg PUBLIC "-//W3C//DTD SVG 1.1//EN" "http://www.w3.org/Graphics/SVG/1.1/DTD/svg11.dtd">
<svg width="100%" height="100%" viewBox="0 0 300 300" version="1.1" xmlns="http://www.w3.org/2000/svg" xmlns:xlink="http://www.w3.org/1999/xlink" xml:space="preserve" xmlns:serif="http://www.serif.com/" style="fill-rule:evenodd;clip-rule:evenodd;stroke-linejoin:round;stroke-miterlimit:2;">
    <g transform="matrix(1,0,0,1,-2093,0)">
        <g id="Paulig" transform="matrix(1,0,0,1,343,0)">
            <rect x="1750" y="0" width="300" height="300" style="fill:none;"/>
            <g transform="matrix(0.162423,0,0,0.162423,1510.758943,74.811473)">
                <g transform="matrix(4.166667,0,0,4.166667,1750,0)">
                    <g>
                        <path d="M155.2,222.2L0,167.9L0,54.4L155.2,0L310.3,54.4L310.3,167.9L155.2,222.2ZM8.7,161.7L155.2,213.1L301.6,161.7L301.6,60.6L155.2,9.2L8.7,60.6L8.7,161.7Z"/>
                    </g>
                </g>
                <g transform="matrix(4.166667,0,0,4.166667,1750,0)">
                    <g>
                        <path d="M110.2,55.2L107.4,56L104.4,45.5L108.4,44.4C111.2,43.6 113.3,44.9 114,47.3C114.7,49.6 113.6,51.8 110.8,52.6L109.6,52.9L110.2,55.2ZM109.9,50.3C111.2,49.9 111.4,49.1 111.1,48.1C110.8,47.1 110.1,46.5 108.9,46.9L107.9,47.2L108.9,50.7L109.9,50.3Z" style="fill-rule:nonzero;"/>
                        <path d="M130,50.7L126.9,51.3L124.9,49.1L123.8,49.3L124.3,51.8L121.4,52.3L119.4,41.6L123.5,40.8C126.4,40.3 128.3,41.8 128.8,44.1C129.1,45.6 128.6,47 127.5,47.9L130,50.7ZM124.5,46.8C125.8,46.6 126.1,45.7 125.9,44.7C125.7,43.7 125.1,43 123.8,43.3L122.7,43.5L123.4,47L124.5,46.8Z" style="fill-rule:nonzero;"/>
                        <path d="M134.9,39L142.5,38.2L142.7,40.6L138,41.1L138.3,43.6L142.2,43.2L142.4,45.5L138.5,45.9L138.6,47L143.5,46.5L143.7,48.9L135.9,49.7L134.9,39Z" style="fill-rule:nonzero;"/>
                        <path d="M150.1,37.7C150.1,37.6 150.2,37.6 150.2,37.7L155.5,43.5L160.5,37.6C160.6,37.5 160.6,37.5 160.6,37.6L161.4,48.6L158.5,48.6L158.2,44L155.5,47.2C155.5,47.2 155.4,47.3 155.4,47.2L152.5,44.1L152.3,48.8L149.5,48.8L150.1,37.7Z" style="fill-rule:nonzero;"/>
                        <path d="M168.7,38.2L171.6,38.4L170.8,49.2L167.9,49L168.7,38.2Z" style="fill-rule:nonzero;"/>
                        <path d="M177.9,45.7L178.9,39.1L181.8,39.6L180.8,46.2C180.6,47.4 181.1,48.2 182.3,48.4C183.5,48.6 184.2,48 184.4,46.8L185.4,40.2L188.3,40.7L187.3,47.3C186.8,50.2 184.6,51.3 182,50.9C179.2,50.4 177.4,48.6 177.9,45.7Z" style="fill-rule:nonzero;"/>
                        <path d="M195.6,42C195.6,41.9 195.7,41.9 195.7,42L199.3,49L205.8,44.6C205.9,44.5 205.9,44.5 205.9,44.7L203.7,55.5L200.9,54.8L201.8,50.2L198.4,52.6L198.3,52.6L196.4,48.8L195,53.2L192.2,52.5L195.6,42Z" style="fill-rule:nonzero;"/>
                    </g>
                    <g>
                        <path d="M118.1,182.6C115.1,181.9 113.1,179.1 113.8,175.9C114.5,172.7 117.6,171 120.4,171.7C122.7,172.2 123.9,173.5 124.5,175L122,176C121.7,175.3 121.2,174.5 119.9,174.2C118.3,173.8 117.1,174.9 116.7,176.6C116.3,178.3 117,179.8 118.6,180.2C120,180.5 120.8,180 121.4,179.3L123.3,181.2C121.9,182.7 120.3,183.1 118.1,182.6Z" style="fill-rule:nonzero;"/>
                        <path d="M128.8,179.1C129.2,175.8 132.2,173.9 135.3,174.3C138.4,174.7 140.8,177.3 140.4,180.6C140,183.9 137,185.8 133.9,185.4C130.7,185 128.3,182.4 128.8,179.1ZM137.4,180.2C137.6,178.5 136.8,177.1 134.9,176.8C133.1,176.6 131.9,177.8 131.7,179.5C131.5,181.2 132.3,182.7 134.2,182.9C136,183.1 137.2,181.9 137.4,180.2Z" style="fill-rule:nonzero;"/>
                        <path d="M146.7,175.6L154.1,175.9L154,178.3L149.5,178.1L149.4,180.6L153.3,180.7L153.2,183.1L149.2,183L149.1,186.5L146.2,186.4L146.7,175.6Z" style="fill-rule:nonzero;"/>
                        <path d="M159.6,175.8L167,175.5L167.1,177.9L162.6,178.1L162.7,180.6L166.6,180.4L166.7,182.8L162.7,183L162.8,186.5L159.9,186.6L159.6,175.8Z" style="fill-rule:nonzero;"/>
                        <path d="M172.6,175L180.2,174.1L180.5,176.5L175.8,177.1L176.1,179.6L180,179.1L180.3,181.4L176.4,181.9L176.5,183L181.4,182.4L181.7,184.8L173.9,185.7L172.6,175Z" style="fill-rule:nonzero;"/>
                        <path d="M186.1,173.1L193.6,171.6L194.1,174L189.5,175L190,177.5L193.9,176.7L194.4,179L190.5,179.8L190.7,180.9L195.5,179.9L196,182.3L188.3,183.9L186.1,173.1Z" style="fill-rule:nonzero;"/>
                    </g>
                    <g>
                        <path d="M143.8,156.2L142.6,156.2L142.6,154.4L145.9,154.4L145.9,162.6L143.7,162.6L143.7,156.2L143.8,156.2Z" style="fill-rule:nonzero;"/>
                        <path d="M148.7,156.3C148.7,155.2 149.7,154.3 151.3,154.3C152.9,154.3 153.9,155.2 153.9,156.3C153.9,156.9 153.6,157.4 153.2,157.8C154.1,158.2 154.7,159 154.7,160C154.7,161.5 153.5,162.7 151.4,162.7C149.2,162.7 148.1,161.5 148.1,160C148.1,158.9 148.7,158.2 149.6,157.8C149,157.5 148.7,157 148.7,156.3ZM152.6,159.8C152.6,159.2 152.1,158.7 151.3,158.7C150.5,158.7 150,159.2 150,159.8C150,160.5 150.5,161 151.3,161C152.1,161 152.6,160.5 152.6,159.8ZM152,156.6C152,156.2 151.7,155.9 151.2,155.9C150.7,155.9 150.4,156.2 150.4,156.6C150.4,157 150.7,157.3 151.2,157.3C151.8,157.3 152,156.9 152,156.6Z" style="fill-rule:nonzero;"/>
                        <path d="M159.4,156.2L155.8,156.2L155.8,154.4L162.4,154.4C162.5,154.4 162.5,154.4 162.4,154.5L158.7,162.5L156.4,162.5L159.4,156.2Z" style="fill-rule:nonzero;"/>
                        <path d="M169.6,159.7C169.6,161.4 168.2,162.7 166.2,162.7C164.3,162.7 162.9,161.4 162.9,159.7C162.9,158.8 163.2,158.1 163.7,157.4L165.8,154.4L168.1,154.4L166.4,156.9C168.3,156.7 169.6,158.1 169.6,159.7ZM167.4,159.7C167.4,159 167,158.4 166.2,158.4C165.4,158.4 165,159 165,159.7C165,160.3 165.5,160.9 166.2,160.9C167,160.9 167.4,160.3 167.4,159.7Z" style="fill-rule:nonzero;"/>
                    </g>
                    <g>
                        <path d="M144.9,64.9L150.6,64.9L150.6,66.7L147.1,66.7L147.1,68.6L150.1,68.6L150.1,70.3L147.1,70.3L147.1,71.2L150.8,71.2L150.8,73L144.9,73L144.9,64.9Z" style="fill-rule:nonzero;"/>
                        <path d="M151.6,71.6L153.2,70.4C153.6,70.9 154.1,71.3 154.9,71.3C155.5,71.3 155.9,71.1 155.9,70.7C155.9,70.4 155.6,70.2 155.1,70L154.1,69.7C152.9,69.3 152.1,68.6 152.1,67.2C152.1,65.6 153.4,64.8 154.9,64.8C156.3,64.8 157.1,65.3 157.6,65.9L156.4,67.2C156.1,66.9 155.7,66.6 155.1,66.6C154.6,66.6 154.3,66.8 154.3,67.2C154.3,67.5 154.5,67.7 154.9,67.8L156,68.2C157.6,68.7 158.2,69.5 158.2,70.7C158.2,72.2 157.3,73.3 155.1,73.3C153.1,73.2 152.1,72.3 151.6,71.6Z" style="fill-rule:nonzero;"/>
                        <path d="M160.9,66.7L158.7,66.7L158.7,64.9L165.2,64.9L165.2,66.7L163,66.7L163,73L160.8,73L160.8,66.7L160.9,66.7Z" style="fill-rule:nonzero;"/>
                        <path d="M165.5,72C165.5,71.3 166.1,70.8 166.7,70.8C167.3,70.8 167.9,71.3 167.9,72C167.9,72.7 167.3,73.2 166.7,73.2C166.1,73.2 165.5,72.7 165.5,72Z" style="fill-rule:nonzero;"/>
                    </g>
                </g>
                <g transform="matrix(4.166667,0,0,4.166667,1750,0)">
                    <path d="M219.5,100.3C221.9,100.3 224.4,99.4 225.8,98C226.5,97.3 226.9,96.6 227.1,95.9C227.3,95.1 227.2,94.4 226.9,93.8C226.1,92.4 224.1,91.5 221.7,91.5C218,91.5 214.7,93.4 214,96C213.8,96.7 213.9,97.5 214.3,98.1C215.1,99.4 217.1,100.3 219.5,100.3Z" style="fill-rule:nonzero;"/>
                    <path d="M260.1,135.2C264.2,126.5 269.3,115.7 273.5,106.1L261.8,106.1C261.4,106.9 261.3,107.1 261,107.9C255.4,105.1 248,105.4 241.5,107.6C237.5,109 234,111.1 231.3,113.7C229.1,115.9 228.3,117 227.1,119.2C227.1,119.2 226.4,120.6 226.1,122.6C222,125.5 217.6,126.6 216.4,125C215.6,124 215.6,122.9 216.6,120.5C218.5,115.9 220.6,111.4 222.9,106.1L211.1,106.1C208.6,111.6 207.1,115.1 204.8,120C200.6,123.1 195.9,125.2 192.8,125.5C189.2,125.9 187.7,124.4 187.7,124.4C185.7,123.1 185.9,120.4 185.9,120.4C195.7,113.3 204.2,102.9 209.4,90.8C211.3,86.4 212.5,82 212.8,78.8C213,76.9 212.9,75.3 212.5,74.1C211.7,71.8 209.4,70.3 206.3,70.9C204.9,71.2 197.2,71.7 185.8,91.7C182,98.4 180.1,102.5 178.1,108.9C176.9,112.6 176.2,115.9 176,118.7C175.9,120 175.9,121.1 176,122.2C175.3,122.8 168.6,126.3 166,126.3C164.5,126.3 163.6,125 163.8,123.7C164,122.1 164.6,121 165.2,119.4C167,115 169.1,110.7 171.1,106L159.4,106C156.8,111.7 155.5,115.2 153.3,118.8C147.8,127.8 138.3,128.4 141.6,120C143.6,115 145.5,111.1 147.8,105.9L136.1,105.9C134,111 131.3,116.5 129.2,121.5C126.2,125 121.9,126.4 120,126.2C119.6,126.2 119.1,126.1 118.5,125.6C118.1,125.2 117.8,124.6 117.8,124C117.8,122.8 118.6,120.7 119.4,118.8C122,113.1 122.9,110.9 125.1,105.9L113.4,105.9L112.6,107.7C103.9,103.2 90.7,106.8 83.6,113.3C75.6,120.5 75.6,131.7 87.4,131.7C93.8,131.7 100,129.4 105.4,125.3C104.9,129.5 108,131.5 113,131.7C115.5,131.7 116.4,131.9 119.8,131C122.4,130.3 125.6,129 128.3,126.6C128.3,128.8 129.6,130.5 132.5,131.3C133.4,131.6 134.5,131.7 135.8,131.7C141.7,132 147.1,130.3 151.4,126C151.3,129.8 154.5,131.7 159.5,131.7C160.2,131.7 161,131.7 162,131.6C164.1,131.4 166.5,130.9 169.8,129.6C174.3,127.8 176.7,126.4 176.7,126.4C177.8,129.3 180.5,131.7 184.3,131.7C187.6,131.8 193,131.4 199.3,127.9C200.3,127.3 202.3,126.1 203.3,125.2C203.1,126.6 203.3,128.9 205.7,130.3C206.7,130.9 208,131.4 209.7,131.5C217.3,132.1 221.9,129.2 224.9,127.3C225.4,127 225.9,126.6 226.4,126.2C227.4,129.4 230.4,131.6 235.6,131.6C243,131.5 248.2,129.2 253.8,125.2L249,135.6C242.6,135.4 240.9,135.6 235.9,136.4C218.8,139.1 212.5,149 217.5,154.5C222.4,159.9 237.4,161.4 251.9,146.5C254.2,144.2 255.6,142.2 257.6,139.2C263.7,138.6 269.9,137.4 276.8,134.4C277.2,133.6 279,129.4 279,129.4C275.3,131.7 265.5,134.9 260.1,135.2ZM199.4,83.6C201.2,80.9 203.3,78.4 205,77.7C205.4,77.5 206,77.3 206.5,77.6C208.3,78.6 207.1,85.2 202.3,94.5C198.7,101.6 193.3,109.1 186.7,114.9C189.8,99.2 194.2,91.6 199.4,83.6ZM107.5,119.9C103.6,123.1 99.4,124.7 95.5,124.7C90,124.7 89.8,120.3 92.4,116.4C96.3,110.6 104.2,108.5 111.3,111.4L107.5,119.9ZM242.8,146.8C238.2,151.9 232.1,153.3 228.9,153C227.4,152.8 226.4,152.1 225.7,151.1C224,148.5 225.4,144.2 232.4,141.9C236.7,140.5 239.7,139.7 247.4,139.7C246,142.4 245,144.4 242.8,146.8ZM256,119.8C252,123.3 247.6,124.7 243.5,124.7C238,124.7 237.6,120.1 240.2,116.3C244.1,110.5 252.9,108.6 259.6,111.4C258.6,113.7 257.3,117.2 256,119.8Z" style="fill-rule:nonzero;"/>
                    <path d="M59.9,76.5C51.1,92 34.3,129 31.4,134.3C33.4,135.6 36.7,138.6 40.8,141.3C44.1,133.7 46.3,128.6 49.1,122.6C54.8,110.1 70.7,77.5 71.3,75.8L59.9,76.5Z" style="fill-rule:nonzero;"/>
                    <path d="M93.4,93.6C94.7,90.6 95.7,87.3 96,83.8C97,72.8 90.3,66 74.2,65C61.8,64.2 49.8,67.3 38.1,76.1L38.1,87.2C39.1,86.2 40.4,84.9 41.7,83.8C49.1,77.2 55.5,74.2 63,73.1C64.4,72.8 69,72.6 69,72.6C77.3,72.3 85.4,74.9 85.6,85C85.8,91.7 81.5,99.7 75.1,104C68.2,108.7 62.5,108.5 58.1,108.5L55,115C70.6,116.1 87.7,106.9 93.4,93.6Z" style="fill-rule:nonzero;"/>
                </g>
            </g>
        </g>
    </g>
</svg>
